<svg viewBox="0 0 21 19" xmlns="http://www.w3.org/2000/svg">
  <!-- Premier chemin -->
  <path d="M4.07633 12.7313C3.8124 12.7313 3.50452 12.6433 3.28459 12.4674C0.469513 10.2681 -0.0582989 6.13353 2.18497 3.31845C3.2406 1.9549 4.78008 1.07522 6.53949 0.855286C8.25495 0.635354 9.97037 1.11917 11.3339 2.17484C14.1489 4.37411 14.6768 8.5087 12.4335 11.3238C11.9937 11.8956 11.158 11.9836 10.5862 11.5437C10.0144 11.1038 9.92637 10.2681 10.3662 9.6963C11.6858 8.02488 11.3779 5.56168 9.70644 4.24213C8.87071 3.58237 7.85908 3.31845 6.84741 3.45039C5.83574 3.58237 4.91206 4.11019 4.25227 4.90192C2.93272 6.57335 3.2406 9.03655 4.91206 10.3561C5.48387 10.796 5.57182 11.6317 5.13199 12.2035C4.86807 12.5993 4.4722 12.7313 4.07633 12.7313Z" 
        fill="#60A5FA"/>
  
  <!-- Deuxième chemin -->
  <path d="M12.7406 18.1418C11.333 18.1418 9.92548 17.7019 8.73788 16.7782C7.37433 15.7226 6.49465 14.1831 6.27472 12.4237C6.05479 10.7082 6.53864 8.99282 7.59427 7.62928C8.03413 7.05747 8.86986 6.96948 9.44167 7.40934C10.0135 7.84921 10.1014 8.68494 9.66156 9.25675C8.34201 10.9282 8.64993 13.3913 10.3214 14.7109C11.9928 16.0305 14.456 15.7226 15.7755 14.0511C17.0951 12.3797 16.7872 9.9165 15.1157 8.59695C14.5439 8.15709 14.456 7.32135 14.8958 6.74955C15.3357 6.17774 16.1714 6.08979 16.7432 6.52966C19.5583 8.72889 20.0861 12.8635 17.8428 15.6786C16.5673 17.262 14.6759 18.1418 12.7406 18.1418Z" 
        fill="#2563EB"/>
</svg>